<svg xmlns="http://www.w3.org/2000/svg" xmlns:xlink="http://www.w3.org/1999/xlink" width="500" zoomAndPan="magnify" viewBox="0 0 375 374.999991" height="500" preserveAspectRatio="xMidYMid meet" version="1.0"><defs><g/><clipPath id="521f975691"><path d="M 17.714844 17.714844 L 357.285156 17.714844 L 357.285156 357.285156 L 17.714844 357.285156 Z M 17.714844 17.714844 " clip-rule="nonzero"/></clipPath><clipPath id="2ae06a18a8"><path d="M 187.5 17.714844 C 93.730469 17.714844 17.714844 93.730469 17.714844 187.5 C 17.714844 281.269531 93.730469 357.285156 187.5 357.285156 C 281.269531 357.285156 357.285156 281.269531 357.285156 187.5 C 357.285156 93.730469 281.269531 17.714844 187.5 17.714844 Z M 187.5 17.714844 " clip-rule="nonzero"/></clipPath><clipPath id="ef3cde2725"><path d="M 35.089844 35.089844 L 339.910156 35.089844 L 339.910156 339.910156 L 35.089844 339.910156 Z M 35.089844 35.089844 " clip-rule="nonzero"/></clipPath><clipPath id="9ed7716144"><path d="M 187.5 35.089844 C 103.324219 35.089844 35.089844 103.324219 35.089844 187.5 C 35.089844 271.675781 103.324219 339.910156 187.5 339.910156 C 271.675781 339.910156 339.910156 271.675781 339.910156 187.5 C 339.910156 103.324219 271.675781 35.089844 187.5 35.089844 Z M 187.5 35.089844 " clip-rule="nonzero"/></clipPath></defs><g clip-path="url(#521f975691)"><g clip-path="url(#2ae06a18a8)"><path fill="#8223d2" d="M 17.714844 17.714844 L 357.285156 17.714844 L 357.285156 357.285156 L 17.714844 357.285156 Z M 17.714844 17.714844 " fill-opacity="1" fill-rule="nonzero"/></g></g><g clip-path="url(#ef3cde2725)"><g clip-path="url(#9ed7716144)"><path fill="#ffffff" d="M 35.089844 35.089844 L 339.910156 35.089844 L 339.910156 339.910156 L 35.089844 339.910156 Z M 35.089844 35.089844 " fill-opacity="1" fill-rule="nonzero"/></g></g><g fill="#8223d2" fill-opacity="1"><g transform="translate(59.027475, 274.374741)"><g><path d="M 76.1875 25.6875 C 64.632812 25.6875 55.722656 22.773438 49.453125 16.953125 C 43.191406 11.140625 40.0625 2.414062 40.0625 -9.21875 L 40.0625 -52.84375 C 40.0625 -60.375 38.484375 -65.675781 35.328125 -68.75 C 32.171875 -71.820312 26.90625 -73.359375 19.53125 -73.359375 L 9.703125 -73.359375 L 9.703125 -90.8125 L 19.53125 -90.8125 C 26.90625 -90.8125 32.171875 -92.363281 35.328125 -95.46875 C 38.484375 -98.582031 40.0625 -103.910156 40.0625 -111.453125 L 40.0625 -155.078125 C 40.0625 -166.703125 43.191406 -175.421875 49.453125 -181.234375 C 55.722656 -187.054688 64.632812 -189.96875 76.1875 -189.96875 L 88.84375 -189.96875 L 88.84375 -174 L 78.765625 -174 C 72.046875 -174 67.066406 -172.460938 63.828125 -169.390625 C 60.597656 -166.316406 58.984375 -161.546875 58.984375 -155.078125 L 58.984375 -112.921875 C 58.984375 -104.648438 57.40625 -98.238281 54.25 -93.6875 C 51.09375 -89.144531 46.441406 -85.726562 40.296875 -83.4375 L 40.296875 -80.859375 C 46.441406 -78.554688 51.09375 -75.132812 54.25 -70.59375 C 57.40625 -66.050781 58.984375 -59.640625 58.984375 -51.359375 L 58.984375 -9.21875 C 58.984375 -2.75 60.597656 2.019531 63.828125 5.09375 C 67.066406 8.164062 72.046875 9.703125 78.765625 9.703125 L 88.84375 9.703125 L 88.84375 25.6875 Z M 76.1875 25.6875 "/></g></g></g><g fill="#8223d2" fill-opacity="1"><g transform="translate(156.717271, 274.374741)"><g/></g></g><g fill="#8223d2" fill-opacity="1"><g transform="translate(218.403156, 274.374741)"><g><path d="M 8.84375 25.6875 L 8.84375 9.703125 L 18.796875 9.703125 C 25.515625 9.703125 30.488281 8.164062 33.71875 5.09375 C 36.957031 2.019531 38.578125 -2.75 38.578125 -9.21875 L 38.578125 -51.359375 C 38.578125 -59.640625 40.15625 -66.050781 43.3125 -70.59375 C 46.46875 -75.132812 51.160156 -78.554688 57.390625 -80.859375 L 57.390625 -83.4375 C 51.160156 -85.726562 46.46875 -89.144531 43.3125 -93.6875 C 40.15625 -98.238281 38.578125 -104.648438 38.578125 -112.921875 L 38.578125 -155.078125 C 38.578125 -161.546875 36.957031 -166.316406 33.71875 -169.390625 C 30.488281 -172.460938 25.515625 -174 18.796875 -174 L 8.84375 -174 L 8.84375 -189.96875 L 21.375 -189.96875 C 32.925781 -189.96875 41.851562 -187.054688 48.15625 -181.234375 C 54.46875 -175.421875 57.625 -166.703125 57.625 -155.078125 L 57.625 -111.453125 C 57.625 -103.910156 59.203125 -98.582031 62.359375 -95.46875 C 65.515625 -92.363281 70.78125 -90.8125 78.15625 -90.8125 L 87.859375 -90.8125 L 87.859375 -73.359375 L 78.15625 -73.359375 C 70.78125 -73.359375 65.515625 -71.820312 62.359375 -68.75 C 59.203125 -65.675781 57.625 -60.375 57.625 -52.84375 L 57.625 -9.21875 C 57.625 2.414062 54.46875 11.140625 48.15625 16.953125 C 41.851562 22.773438 32.925781 25.6875 21.375 25.6875 Z M 8.84375 25.6875 "/></g></g></g><g fill="#8223d2" fill-opacity="1"><g transform="translate(158.486464, 150.027657)"><g><path d="M 56.25 -40.53125 L 51.546875 -40.53125 L 51.546875 0 L 36.265625 0 L 18.140625 -27.09375 L 18.140625 -9.171875 L 23.609375 -9.171875 L 23.609375 0 L 1.78125 0 L 1.78125 -9.171875 L 5.96875 -9.171875 L 5.96875 -40.53125 L 1.84375 -40.53125 L 1.84375 -49.703125 L 22.25 -49.703125 L 39.671875 -23.609375 L 39.671875 -40.53125 L 34.84375 -40.53125 L 34.84375 -49.703125 L 56.25 -49.703125 Z M 56.25 -40.53125 "/></g></g></g><g fill="#8223d2" fill-opacity="1"><g transform="translate(159.903863, 220.484806)"><g><path d="M 37.046875 0 L 34.84375 -4.484375 C 34.082031 -3.148438 32.671875 -1.960938 30.609375 -0.921875 C 28.546875 0.117188 26.140625 0.640625 23.390625 0.640625 C 19.265625 0.640625 15.507812 -0.375 12.125 -2.40625 C 8.738281 -4.445312 6.046875 -7.335938 4.046875 -11.078125 C 2.054688 -14.828125 1.0625 -19.265625 1.0625 -24.390625 C 1.0625 -28.273438 1.664062 -31.816406 2.875 -35.015625 C 4.082031 -38.222656 5.726562 -40.988281 7.8125 -43.3125 C 9.90625 -45.632812 12.253906 -47.421875 14.859375 -48.671875 C 17.460938 -49.929688 20.140625 -50.5625 22.890625 -50.5625 C 25.453125 -50.5625 27.570312 -50.3125 29.25 -49.8125 C 30.9375 -49.3125 32.273438 -48.707031 33.265625 -48 C 34.265625 -47.289062 35.023438 -46.613281 35.546875 -45.96875 C 36.078125 -45.332031 36.484375 -44.867188 36.765625 -44.578125 L 38.25 -49.703125 L 48.859375 -49.703125 L 48.859375 -28.734375 L 36.125 -28.734375 C 36.03125 -31.617188 35.175781 -33.84375 33.5625 -35.40625 C 31.945312 -36.976562 30.097656 -37.765625 28.015625 -37.765625 C 26.117188 -37.765625 24.4375 -37.144531 22.96875 -35.90625 C 21.5 -34.675781 20.347656 -33.039062 19.515625 -31 C 18.691406 -28.96875 18.28125 -26.765625 18.28125 -24.390625 C 18.28125 -21.972656 18.65625 -19.78125 19.40625 -17.8125 C 20.164062 -15.84375 21.28125 -14.265625 22.75 -13.078125 C 24.21875 -11.898438 25.972656 -11.3125 28.015625 -11.3125 C 30.054688 -11.3125 31.570312 -11.664062 32.5625 -12.375 C 33.5625 -13.082031 34.320312 -13.890625 34.84375 -14.796875 L 34.84375 -17.78125 L 30.5 -17.78125 L 30.5 -25.390625 L 54.109375 -25.390625 L 54.109375 -17.78125 L 51.265625 -17.78125 L 51.265625 0 Z M 37.046875 0 "/></g></g></g><g fill="#8223d2" fill-opacity="1"><g transform="translate(161.885471, 290.941955)"><g><path d="M 1.78125 0 L 1.78125 -9.453125 L 6.1875 -9.453125 L 6.1875 -40.3125 L 1.78125 -40.3125 L 1.78125 -49.703125 L 23.46875 -49.703125 C 29.195312 -49.703125 34.078125 -48.632812 38.109375 -46.5 C 42.140625 -44.375 45.207031 -41.484375 47.3125 -37.828125 C 49.425781 -34.179688 50.484375 -30.082031 50.484375 -25.53125 C 50.484375 -17.425781 48.125 -11.144531 43.40625 -6.6875 C 38.695312 -2.226562 31.957031 0 23.1875 0 Z M 20.765625 -9.453125 L 23.46875 -9.453125 C 25.976562 -9.503906 28.015625 -10.25 29.578125 -11.6875 C 31.140625 -13.132812 32.285156 -15.066406 33.015625 -17.484375 C 33.753906 -19.910156 34.125 -22.59375 34.125 -25.53125 C 34.125 -28.09375 33.753906 -30.5 33.015625 -32.75 C 32.285156 -35 31.140625 -36.820312 29.578125 -38.21875 C 28.015625 -39.613281 25.976562 -40.3125 23.46875 -40.3125 L 20.765625 -40.3125 Z M 20.765625 -9.453125 "/></g></g></g></svg>